<?xml version="1.0" encoding="utf-8"?>
<!-- Generator: Adobe Illustrator 18.1.0, SVG Export Plug-In . SVG Version: 6.00 Build 0)  -->
<svg version="1.1" id="Ebene_1" xmlns="http://www.w3.org/2000/svg" xmlns:xlink="http://www.w3.org/1999/xlink" x="0px" y="0px"
	 viewBox="0 0 59.9 59.9" enable-background="new 0 0 59.9 59.9" xml:space="preserve">
<path d="M0,0v59.9h59.9V0H0z M38.5,36.1H21.4c-0.6,0-1.1-0.5-1.1-1.1s0.5-1.1,1.1-1.1h17.2c0.6,0,1.1,0.5,1.1,1.1
	S39.2,36.1,38.5,36.1z M38.5,31.1H21.4c-0.6,0-1.1-0.5-1.1-1.1c0-0.6,0.5-1.1,1.1-1.1h17.2c0.6,0,1.1,0.5,1.1,1.1
	C39.7,30.6,39.2,31.1,38.5,31.1z M38.5,26.1H21.4c-0.6,0-1.1-0.5-1.1-1.1c0-0.6,0.5-1.1,1.1-1.1h17.2c0.6,0,1.1,0.5,1.1,1.1
	C39.7,25.6,39.2,26.1,38.5,26.1z"/>
</svg>
